<svg width="20" height="20" viewBox="0 0 20 20" fill="none" xmlns="http://www.w3.org/2000/svg">
<path id="facebook" d="M18.896 0H1.104C0.494 0 0 0.494 0 1.104V18.897C0 19.506 0.494 20 1.104 20H10.684V12.255H8.076V9.237H10.682V7.01C10.682 4.427 12.26 3.02 14.565 3.02C15.669 3.02 16.617 3.102 16.894 3.139V5.839H15.296C14.042 5.839 13.8 6.436 13.8 7.309V9.237H16.789L16.399 12.255H13.799V20H18.897C19.505 20 19.999 19.506 19.999 18.896V1.104C20 0.494 19.506 0 18.896 0Z"/>
<path id="youtube" d="M10.333 0C4.81101 0 0.333008 4.478 0.333008 10C0.333008 15.523 4.81101 20 10.333 20C15.856 20 20.333 15.523 20.333 10C20.333 4.478 15.856 0 10.333 0ZM14.034 14.077C12.282 14.197 8.38101 14.197 6.63201 14.077C4.73501 13.947 4.51401 13.018 4.50001 10C4.51401 6.976 4.73701 6.053 6.63201 5.923C8.38101 5.803 12.283 5.803 14.034 5.923C15.932 6.053 16.152 6.982 16.167 10C16.152 13.024 15.929 13.947 14.034 14.077ZM8.66701 8.048L12.764 9.997L8.66701 11.952V8.048Z"/>
<path id="twitter" d="M20.667 2.79705C19.9181 3.12903 19.1236 3.34678 18.31 3.44305C19.1672 2.93067 19.8084 2.12375 20.114 1.17305C19.3084 1.65111 18.4271 1.98796 17.508 2.16905C17.1243 1.75932 16.6604 1.43284 16.1452 1.2099C15.6299 0.986956 15.0744 0.8723 14.513 0.873051C11.864 0.873051 9.91802 3.34505 10.516 5.91105C8.88458 5.82942 7.28855 5.40555 5.83158 4.66699C4.3746 3.92842 3.08926 2.89167 2.05902 1.62405C1.53476 2.52752 1.37427 3.59675 1.61018 4.61432C1.84609 5.6319 2.46069 6.52143 3.32902 7.10205C2.67738 7.08213 2.03996 6.90658 1.47002 6.59005C1.42502 8.49105 2.78702 10.2701 4.76002 10.6651C4.15573 10.8291 3.52196 10.8531 2.90702 10.7351C3.16891 11.5507 3.67936 12.264 4.36687 12.775C5.05438 13.2861 5.88451 13.5693 6.74102 13.5851C5.02118 14.9341 2.83626 15.5455 0.666016 15.2851C2.5423 16.4904 4.7259 17.1303 6.95602 17.128C14.574 17.128 18.878 10.694 18.618 4.92305C19.4213 4.34217 20.1148 3.62295 20.666 2.79905L20.667 2.79705Z"/>
<path id="pinteres" d="M10 0C4.478 0 0 4.477 0 10C0 14.237 2.636 17.855 6.356 19.312C6.268 18.521 6.189 17.307 6.391 16.444C6.573 15.664 7.563 11.474 7.563 11.474C7.563 11.474 7.264 10.874 7.264 9.988C7.264 8.598 8.07 7.56 9.074 7.56C9.926 7.56 10.338 8.2 10.338 8.968C10.338 9.826 9.793 11.108 9.51 12.298C9.274 13.293 10.01 14.105 10.99 14.105C12.768 14.105 14.134 12.231 14.134 9.525C14.134 7.132 12.414 5.457 9.957 5.457C7.112 5.457 5.442 7.592 5.442 9.797C5.442 10.656 5.773 11.578 6.187 12.078C6.22243 12.1159 6.24742 12.1624 6.25951 12.2129C6.27161 12.2634 6.2704 12.3161 6.256 12.366L5.978 13.499C5.934 13.682 5.833 13.722 5.643 13.633C4.394 13.052 3.613 11.226 3.613 9.759C3.613 6.605 5.905 3.707 10.221 3.707C13.69 3.707 16.386 6.18 16.386 9.483C16.386 12.93 14.213 15.703 11.196 15.703C10.183 15.703 9.231 15.178 8.905 14.555L8.282 16.933C8.056 17.802 7.447 18.891 7.038 19.554C7.975 19.844 8.969 20 10 20C15.522 20 20 15.523 20 10C20 4.477 15.522 0 10 0Z"/>
<path id="instagram" d="M10.333 1.802C13.003 1.802 13.32 1.812 14.375 1.861C17.085 1.984 18.351 3.27 18.475 5.96C18.523 7.014 18.532 7.33 18.532 10C18.532 12.672 18.522 12.988 18.474 14.042C18.35 16.729 17.088 18.017 14.375 18.141C13.32 18.189 13.005 18.199 10.333 18.199C7.66298 18.199 7.34698 18.189 6.29298 18.141C3.57598 18.017 2.31698 16.725 2.19298 14.041C2.14498 12.987 2.13498 12.671 2.13498 10C2.13498 7.33 2.14498 7.014 2.19298 5.96C2.31698 3.27 3.57998 1.983 6.29298 1.86C7.34698 1.812 7.66298 1.802 10.333 1.802ZM10.333 0C7.61798 0 7.27798 0.012 6.21098 0.06C2.57898 0.227 0.559984 2.242 0.393984 5.877C0.344984 6.944 0.333984 7.284 0.333984 10C0.333984 12.716 0.344984 13.057 0.393984 14.123C0.559984 17.755 2.57498 19.773 6.20998 19.94C7.27798 19.988 7.61798 20 10.333 20C13.049 20 13.39 19.988 14.457 19.94C18.085 19.773 20.108 17.758 20.273 14.123C20.322 13.057 20.333 12.716 20.333 10C20.333 7.284 20.322 6.944 20.273 5.878C20.11 2.249 18.093 0.228 14.458 0.06C13.39 0.01 13.049 0 10.333 0ZM10.333 4.865C8.9711 4.865 7.66499 5.40601 6.70199 6.36901C5.73899 7.33201 5.19798 8.63811 5.19798 10C5.19798 11.3619 5.73899 12.668 6.70199 13.631C7.66499 14.594 8.9711 15.135 10.333 15.135C11.6949 15.135 13.001 14.594 13.964 13.631C14.927 12.668 15.468 11.3619 15.468 10C15.468 8.63811 14.927 7.33201 13.964 6.36901C13.001 5.40601 11.6949 4.865 10.333 4.865ZM10.333 13.333C9.44902 13.333 8.60126 12.9818 7.9762 12.3568C7.35114 11.7317 6.99998 10.884 6.99998 10C6.99998 9.11603 7.35114 8.26827 7.9762 7.64321C8.60126 7.01815 9.44902 6.667 10.333 6.667C11.217 6.667 12.0647 7.01815 12.6898 7.64321C13.3148 8.26827 13.666 9.11603 13.666 10C13.666 10.884 13.3148 11.7317 12.6898 12.3568C12.0647 12.9818 11.217 13.333 10.333 13.333ZM15.672 3.463C15.5144 3.46293 15.3583 3.49391 15.2127 3.55415C15.0671 3.6144 14.9348 3.70273 14.8233 3.81412C14.7118 3.9255 14.6234 4.05775 14.563 4.20332C14.5027 4.34888 14.4716 4.50491 14.4715 4.6625C14.4714 4.82009 14.5024 4.97614 14.5626 5.12176C14.6229 5.26737 14.7112 5.3997 14.8226 5.51117C14.934 5.62265 15.0662 5.7111 15.2118 5.77146C15.3574 5.83183 15.5134 5.86293 15.671 5.863C15.9892 5.863 16.2945 5.73657 16.5195 5.51153C16.7446 5.28648 16.871 4.98126 16.871 4.663C16.871 4.34474 16.7446 4.03952 16.5195 3.81447C16.2945 3.58943 15.9892 3.463 15.671 3.463H15.672Z"/>
</svg>
