<svg width="34" height="40" viewBox="0 0 34 40" fill="none" xmlns="http://www.w3.org/2000/svg">
<path d="M20.6329 0C21.4526 0.00105839 22.2384 0.327162 22.8181 0.906796C23.3977 1.48643 23.7238 2.27227 23.7249 3.092V10.662C28.9549 10.948 33.1179 15.027 33.1179 20C33.1179 24.973 28.9559 29.052 23.7249 29.338V36.908C23.7241 37.7278 23.398 38.5138 22.8184 39.0935C22.2387 39.6732 21.4527 39.9992 20.6329 40H3.09886C2.27905 39.9992 1.49305 39.6732 0.913363 39.0935C0.333672 38.5138 0.00765308 37.7278 0.00685883 36.908V29.668C0.00685883 29.5123 0.0687034 29.363 0.178787 29.2529C0.288871 29.1428 0.438177 29.081 0.593859 29.081C0.749541 29.081 0.898846 29.1428 1.00893 29.2529C1.11901 29.363 1.18086 29.5123 1.18086 29.668V33.19H22.5509V29.338C21.5656 29.2857 20.5926 29.0944 19.6609 28.77L15.2779 31.161C14.8119 31.415 14.2649 30.941 14.4449 30.445L15.7529 26.849H9.04786C8.8923 26.8484 8.74322 26.7866 8.63286 26.677L3.93586 21.981C3.82632 21.8706 3.76455 21.7215 3.76386 21.566V8.728C3.76386 8.404 4.02686 8.141 4.35086 8.141H19.3809C19.7049 8.141 19.9679 8.404 19.9679 8.728V11.13C20.7869 10.872 21.6529 10.711 22.5509 10.662V6.184H1.17986V26.888C1.17986 26.9651 1.16468 27.0414 1.13518 27.1126C1.10568 27.1839 1.06244 27.2486 1.00793 27.3031C0.953423 27.3576 0.888712 27.4008 0.817493 27.4303C0.746275 27.4598 0.669945 27.475 0.592859 27.475C0.515773 27.475 0.439441 27.4598 0.368223 27.4303C0.297005 27.4008 0.232296 27.3576 0.177788 27.3031C0.12328 27.2486 0.0800404 27.1839 0.0505409 27.1126C0.0210414 27.0414 0.00585937 26.9651 0.00585938 26.888V3.092C0.00691829 2.2721 0.333158 1.4861 0.913008 0.906443C1.49286 0.326781 2.27896 0.000793791 3.09886 0H20.6329ZM22.5509 34.364H1.17986V36.908C1.18039 37.4165 1.38263 37.9041 1.74221 38.2636C2.10179 38.6232 2.58934 38.8255 3.09786 38.826H20.6319C21.1404 38.8255 21.6279 38.6232 21.9875 38.2636C22.3471 37.9041 22.5493 37.4165 22.5499 36.908V34.364H22.5509ZM13.1179 35.069C13.4429 35.069 13.7049 35.331 13.7049 35.656V37.534C13.7049 37.6111 13.6897 37.6874 13.6602 37.7586C13.6307 37.8299 13.5874 37.8946 13.5329 37.9491C13.4784 38.0036 13.4137 38.0468 13.3425 38.0763C13.2713 38.1058 13.1949 38.121 13.1179 38.121H10.6129C10.5358 38.121 10.4594 38.1058 10.3882 38.0763C10.317 38.0468 10.2523 38.0036 10.1978 37.9491C10.1433 37.8946 10.1 37.8299 10.0705 37.7586C10.041 37.6874 10.0259 37.6111 10.0259 37.534V35.656C10.0259 35.331 10.2889 35.069 10.6129 35.069H13.1179ZM12.5309 36.243H11.2009V36.947H12.5309V36.243ZM23.1379 11.82C18.2819 11.82 14.3319 15.49 14.3319 20C14.3319 22.217 15.2719 24.293 16.9789 25.846C17.1559 26.006 17.2179 26.256 17.1359 26.481L16.0799 29.386L19.3309 27.613C19.4052 27.5723 19.4875 27.5482 19.5721 27.5423C19.6567 27.5364 19.7416 27.5489 19.8209 27.579C20.8809 27.9788 22.0049 28.1824 23.1379 28.18C27.9939 28.18 31.9439 24.51 31.9439 20C31.9439 15.49 27.9939 11.82 23.1379 11.82ZM23.1379 13.15C23.4619 13.15 23.7249 13.414 23.7249 13.738V15.029H23.7649C24.4185 15.0301 25.045 15.2902 25.5071 15.7525C25.9691 16.2148 26.2291 16.8414 26.2299 17.495V18.121C26.2299 18.2767 26.168 18.426 26.0579 18.5361C25.9478 18.6462 25.7985 18.708 25.6429 18.708C25.4872 18.708 25.3379 18.6462 25.2278 18.5361C25.1177 18.426 25.0559 18.2767 25.0559 18.121V17.495C25.0559 16.783 24.4759 16.204 23.7639 16.204H22.8239C21.9399 16.204 21.2199 16.924 21.2199 17.808C21.2199 18.693 21.9399 19.413 22.8249 19.413H23.4509C24.1877 19.4138 24.894 19.7068 25.415 20.2278C25.936 20.7488 26.2291 21.4552 26.2299 22.192C26.2299 23.632 25.1299 24.819 23.7249 24.957V26.262C23.7249 26.4177 23.663 26.567 23.5529 26.6771C23.4428 26.7872 23.2935 26.849 23.1379 26.849C22.9822 26.849 22.8329 26.7872 22.7228 26.6771C22.6127 26.567 22.5509 26.4177 22.5509 26.262V24.971H22.5109C21.8573 24.9699 21.2307 24.7098 20.7687 24.2475C20.3066 23.7852 20.0467 23.1586 20.0459 22.505C20.0459 22.3493 20.1077 22.2 20.2178 22.0899C20.3279 21.9798 20.4772 21.918 20.6329 21.918C20.7885 21.918 20.9378 21.9798 21.0479 22.0899C21.158 22.2 21.2199 22.3493 21.2199 22.505C21.2199 23.217 21.7999 23.796 22.5119 23.796H23.4509C24.3359 23.796 25.0559 23.076 25.0559 22.192C25.0559 21.307 24.3359 20.587 23.4509 20.587H22.8249C22.0879 20.5865 21.3812 20.2935 20.86 19.7725C20.3388 19.2515 20.0457 18.545 20.0449 17.808C20.0449 16.368 21.1469 15.181 22.5509 15.043V13.738C22.5509 13.414 22.8139 13.151 23.1379 13.151V13.15ZM18.7929 9.315H4.93786V20.978H9.04786C9.37186 20.978 9.63486 21.241 9.63486 21.566V25.676H15.2019C13.8749 24.054 13.1579 22.083 13.1579 20C13.1579 18.888 13.3659 17.82 13.7479 16.83H7.48186C7.32618 16.83 7.17687 16.7682 7.06679 16.6581C6.9567 16.548 6.89486 16.3987 6.89486 16.243C6.89486 16.0873 6.9567 15.938 7.06679 15.8279C7.17687 15.7178 7.32618 15.656 7.48186 15.656H14.3019C14.7009 14.945 15.1949 14.287 15.7679 13.699H13.7449C13.5892 13.699 13.4399 13.6372 13.3298 13.5271C13.2197 13.417 13.1579 13.2677 13.1579 13.112C13.1579 12.9563 13.2197 12.807 13.3298 12.6969C13.4399 12.5868 13.5892 12.525 13.7449 12.525H16.8749C16.9509 12.525 17.0229 12.539 17.0889 12.565C17.6189 12.185 18.1889 11.855 18.7929 11.58V9.315ZM8.46086 22.153H5.76886L8.46086 24.845V22.153ZM11.8659 18.787C12.0215 18.787 12.1708 18.8488 12.2809 18.9589C12.391 19.069 12.4529 19.2183 12.4529 19.374C12.4529 19.5297 12.391 19.679 12.2809 19.7891C12.1708 19.8992 12.0215 19.961 11.8659 19.961H7.48186C7.32618 19.961 7.17687 19.8992 7.06679 19.7891C6.9567 19.679 6.89486 19.5297 6.89486 19.374C6.89486 19.2183 6.9567 19.069 7.06679 18.9589C7.17687 18.8488 7.32618 18.787 7.48186 18.787H11.8659ZM11.2399 12.524C11.3957 12.524 11.5451 12.5859 11.6553 12.6961C11.7655 12.8063 11.8274 12.9557 11.8274 13.1115C11.8274 13.2673 11.7655 13.4167 11.6553 13.5269C11.5451 13.6371 11.3957 13.699 11.2399 13.699H7.48186C7.32604 13.699 7.17661 13.6371 7.06643 13.5269C6.95626 13.4167 6.89436 13.2673 6.89436 13.1115C6.89436 12.9557 6.95626 12.8063 7.06643 12.6961C7.17661 12.5859 7.32604 12.524 7.48186 12.524H11.2399ZM20.6329 1.174H3.09886C2.59034 1.17453 2.10279 1.37677 1.74321 1.73635C1.38363 2.09593 1.18139 2.58348 1.18086 3.092V5.01H22.5509V3.092C22.5503 2.58348 22.3481 2.09593 21.9885 1.73635C21.6289 1.37677 21.1414 1.17453 20.6329 1.174ZM13.1179 2.504C13.2737 2.504 13.4231 2.5659 13.5333 2.67607C13.6435 2.78625 13.7054 2.93568 13.7054 3.0915C13.7054 3.24731 13.6435 3.39675 13.5333 3.50693C13.4231 3.6171 13.2737 3.679 13.1179 3.679H10.6129C10.4572 3.679 10.3079 3.61716 10.1978 3.50707C10.0877 3.39699 10.0259 3.24768 10.0259 3.092C10.0259 2.93632 10.0877 2.78701 10.1978 2.67693C10.3079 2.56684 10.4572 2.505 10.6129 2.505L13.1179 2.504Z" fill="white"/>
</svg>
