<svg width="108" height="20" viewBox="0 0 108 20" fill="none" xmlns="http://www.w3.org/2000/svg">
<path id="logo-letter" d="M6.7541 15.847C9.6061 15.847 11.9061 14.225 12.7061 11.631H8.8091C8.4331 12.296 7.6691 12.697 6.7541 12.697C5.5171 12.697 4.6891 12.023 4.4341 10.719H12.8741C12.9251 10.367 12.9551 10.025 12.9551 9.682C12.9551 6.347 10.4181 3.732 6.7541 3.732C3.1861 3.732 0.579102 6.296 0.579102 9.781C0.579102 13.254 3.2071 15.847 6.7541 15.847ZM9.0981 8.55H4.5021C4.8191 7.421 5.6121 6.801 6.7541 6.801C7.9351 6.801 8.7541 7.414 9.0981 8.551V8.55ZM20.0441 15.846C21.3641 15.846 22.5441 15.412 23.4741 14.658L23.8101 15.462H26.8371V4.093H23.9181L23.5181 4.973C22.5781 4.198 21.3831 3.751 20.0441 3.751C16.5681 3.751 14.0831 6.256 14.0831 9.777C14.0831 13.31 16.5681 15.847 20.0441 15.847V15.846ZM20.5681 12.379C19.1011 12.379 18.0231 11.271 18.0231 9.786C18.0231 8.311 19.0921 7.203 20.5681 7.203C22.0341 7.203 23.1121 8.311 23.1121 9.786C23.1121 11.271 22.0341 12.379 20.5681 12.379ZM33.6911 15.846C36.7111 15.846 38.7161 14.292 38.7161 11.916C38.7161 9.033 36.3291 8.66 34.5331 8.341C33.4531 8.148 32.5831 7.997 32.5831 7.351C32.5831 6.824 33.0051 6.513 33.6331 6.513C34.3431 6.513 34.8301 6.85 34.8301 7.576H38.4971C38.4531 5.273 36.5771 3.733 33.6811 3.733C30.7691 3.733 28.8271 5.203 28.8271 7.483C28.8271 10.24 31.1641 10.772 32.9271 11.057C34.0191 11.238 34.8791 11.425 34.8791 12.081C34.8791 12.668 34.3361 12.961 33.7631 12.961C33.0211 12.961 32.4431 12.578 32.4431 11.747H28.6731C28.7091 14.21 30.5921 15.847 33.6911 15.847V15.846ZM41.7911 19.704C44.7271 19.704 46.1351 18.447 47.6681 14.968L52.4321 4.105H48.2261L45.9771 10.368L43.5651 4.105H39.3101L44.0081 14.535C43.4781 15.949 43.0251 16.339 41.5281 16.339H40.4501V19.704H41.7911ZM60.2951 15.846C63.7951 15.846 66.2681 13.331 66.2681 9.798C66.2681 6.265 63.7961 3.75 60.2951 3.75C59.2987 3.74223 58.32 4.01383 57.4701 4.534V0H53.6001V15.474H56.4971L56.8671 14.63C57.7901 15.401 58.9691 15.846 60.2951 15.846ZM59.7721 12.379C58.3051 12.379 57.2271 11.271 57.2271 9.799C57.2271 8.313 58.3051 7.205 59.7721 7.205C61.2381 7.205 62.3161 8.313 62.3161 9.798C62.3161 11.271 61.2291 12.378 59.7721 12.378V12.379ZM73.3701 15.846C74.6901 15.846 75.8701 15.412 76.8001 14.658L77.1361 15.462H80.1631V4.093H77.2451L76.8441 4.973C75.9051 4.198 74.7091 3.751 73.3701 3.751C69.8941 3.751 67.4101 6.256 67.4101 9.777C67.4101 13.31 69.8941 15.847 73.3701 15.847V15.846ZM73.8941 12.379C72.4271 12.379 71.3491 11.271 71.3491 9.786C71.3491 8.311 72.4191 7.203 73.8941 7.203C75.3611 7.203 76.4391 8.311 76.4391 9.786C76.4391 11.271 75.3611 12.379 73.8941 12.379ZM86.5471 15.474V9.403C86.5471 7.956 87.2491 7.103 88.4701 7.103C89.4561 7.103 89.9531 7.76 89.9531 9.083V15.473H93.8681V8.543C93.8681 5.646 92.1351 3.77 89.4951 3.77C88.0251 3.77 86.7621 4.335 85.9151 5.278L85.3781 4.106H82.6311V15.475H86.5471V15.474ZM100.295 15.474V10.666L103.143 15.474H107.759L103.857 9.524L107.4 4.105H103.003L100.295 8.559V0H96.3791V15.474H100.295Z" />
</svg>

